<svg xmlns="http://www.w3.org/2000/svg" width="1440" height="760" viewBox="0 0 1440 760">
<rect width="1440" height="760" rx="28" fill="#f5f5f2"/><rect x="28" y="28" width="276" height="704" rx="20" fill="#ecece8"/><circle cx="67" cy="70" r="18" fill="#20201e"/><text x="61" y="76" fill="#fff" font-family="Arial" font-size="16" font-weight="700">П</text><text x="97" y="77" fill="#20201e" font-family="Arial" font-size="20" font-weight="700">Просметчик</text>
<g font-family="Arial" font-size="15" fill="#484844"><rect x="46" y="118" width="240" height="46" rx="12" fill="#deded9"/><text x="70" y="147">Новый чат</text><text x="70" y="205">Чаты</text><text x="70" y="249">Объекты</text><text x="70" y="293">Сметы</text><text x="70" y="337">Документы</text><text x="70" y="381">Цены</text></g>
<rect x="328" y="28" width="1084" height="704" rx="20" fill="#fff"/><text x="374" y="88" fill="#20201e" font-family="Arial" font-size="26" font-weight="700">Что нужно сделать?</text><text x="374" y="122" fill="#777770" font-family="Arial" font-size="15">Чат, расчёт и документы в одном спокойном рабочем пространстве</text>
<rect x="430" y="174" width="614" height="76" rx="19" fill="#ededeb"/><text x="460" y="207" fill="#292927" font-family="Arial" font-size="15">Составь смету механизированной штукатурки 358 м².</text><text x="460" y="231" fill="#777770" font-family="Arial" font-size="13">Сначала технологическая карта, затем расчёт и документы.</text>
<circle cx="391" cy="303" r="17" fill="#20201e"/><text x="385" y="309" fill="#fff" font-family="Arial" font-size="13" font-weight="700">П</text><text x="430" y="299" fill="#292927" font-family="Arial" font-size="15">Подготовил технологию и черновик. Итог подтверждается Rust-движком.</text>
<rect x="430" y="329" width="902" height="246" rx="18" fill="#fafaf9" stroke="#d7d7d2"/><text x="462" y="370" fill="#20201e" font-family="Arial" font-size="18" font-weight="700">Смета: механизированная штукатурка</text><text x="1192" y="370" fill="#20201e" font-family="Arial" font-size="18" font-weight="700">536 420 ₽</text><line x1="462" y1="395" x2="1300" y2="395" stroke="#deded9"/><g font-family="Arial" font-size="14" fill="#454541"><text x="462" y="430">Механизированная штукатурка стен</text><text x="1130" y="430">358 м²</text><text x="1240" y="430">186 160 ₽</text><text x="462" y="470">Грунтование, маяки и углы</text><text x="1130" y="470">компл.</text><text x="1240" y="470">74 260 ₽</text><text x="462" y="510">Материалы, доставка и подъём</text><text x="1130" y="510">компл.</text><text x="1240" y="510">276 000 ₽</text></g><line x1="462" y1="536" x2="1300" y2="536" stroke="#deded9"/><text x="462" y="559" fill="#777770" font-family="Arial" font-size="12">Rust 1.0 · SHA-256 verified · версия 4</text>
<rect x="374" y="630" width="920" height="64" rx="20" fill="#fff" stroke="#cfcfca"/><text x="402" y="668" fill="#91918b" font-family="Arial" font-size="15">Сообщение Просметчику</text><rect x="1238" y="642" width="42" height="42" rx="14" fill="#20201e"/><text x="1251" y="672" fill="#fff" font-family="Arial" font-size="24">↑</text>
</svg>
